<?xml version="1.0" encoding="UTF-8"?>
<svg height="128px" viewBox="0 0 128 128" width="128px" xmlns="http://www.w3.org/2000/svg" xmlns:xlink="http://www.w3.org/1999/xlink">
    <linearGradient id="a" gradientTransform="matrix(0.232143 0 0 0.328947 -8.566925 263.826965)" gradientUnits="userSpaceOnUse" x1="88.595886" x2="536.595886" y1="-449.394012" y2="-449.394012">
        <stop offset="0" stop-color="#77767b"/>
        <stop offset="0.0384615" stop-color="#c0bfbc"/>
        <stop offset="0.0768555" stop-color="#9a9996"/>
        <stop offset="0.923077" stop-color="#9a9996"/>
        <stop offset="0.961538" stop-color="#c0bfbc"/>
        <stop offset="1" stop-color="#77767b"/>
    </linearGradient>
    <path d="m 20 16 h 88 c 4.417969 0 8 3.582031 8 8 v 84 c 0 4.417969 -3.582031 8 -8 8 h -88 c -4.417969 0 -8 -3.582031 -8 -8 v -84 c 0 -4.417969 3.582031 -8 8 -8 z m 0 0" fill="url(#a)"/>
    <path d="m 20 12 h 88 c 4.417969 0 8 3.582031 8 8 v 84 c 0 4.417969 -3.582031 8 -8 8 h -88 c -4.417969 0 -8 -3.582031 -8 -8 v -84 c 0 -4.417969 3.582031 -8 8 -8 z m 0 0" fill="#deddda"/>
    <path d="m 53.730469 36.640625 c 0.542969 0.210937 1.03125 0.5625 1.476562 1.027344 c 0.738281 0.765625 1.363281 1.863281 1.839844 3.167969 c 0.476563 1.308593 0.789063 2.757812 0.90625 4.210937 c 1.578125 -0.890625 3.332031 -1.4375 5.140625 -1.59375 l 0.125 -0.011719 c 2.183594 -0.175781 4.339844 0.21875 6.222656 1.191406 c 0.25 0.132813 0.5 0.273438 0.742188 0.425782 c 0.125 -1.429688 0.433594 -2.84375 0.902344 -4.125 c 0.476562 -1.304688 1.101562 -2.398438 1.839843 -3.167969 c 0.410157 -0.445313 0.917969 -0.796875 1.476563 -1.027344 c 0.644531 -0.253906 1.328125 -0.296875 1.996094 -0.105469 c 1.007812 0.285157 1.867187 0.921876 2.546874 1.847657 c 0.625 0.84375 1.089844 1.929687 1.410157 3.226562 c 0.574219 2.34375 0.675781 5.425781 0.285156 9.140625 l 0.132813 0.101563 l 0.066406 0.046875 c 1.898437 1.445312 3.21875 3.503906 3.921875 5.894531 c 1.089843 3.726563 0.539062 7.910156 -1.339844 10.25 l -0.046875 0.054687 l 0.007812 0.007813 c 1.042969 1.910156 1.679688 3.929687 1.8125 6.019531 l 0.007813 0.074219 c 0.160156 2.671875 -0.503906 5.359375 -2.042969 8 l -0.015625 0.023437 l 0.023438 0.0625 c 1.183593 2.898438 1.554687 5.820313 1.097656 8.742188 l -0.015625 0.097656 c -0.144531 0.886719 -0.984375 1.488282 -1.871094 1.34375 c -0.429687 -0.066406 -0.808594 -0.300781 -1.066406 -0.648437 c -0.253906 -0.351563 -0.355469 -0.785157 -0.289062 -1.214844 c 0.417968 -2.589844 0.023437 -5.1875 -1.203126 -7.832031 c -0.234374 -0.496094 -0.195312 -1.082032 0.101563 -1.546875 l 0.007813 -0.015625 c 1.515624 -2.316406 2.140624 -4.585938 2.007812 -6.820313 c -0.117188 -1.953125 -0.816406 -3.871093 -2.007812 -5.699219 c -0.480469 -0.738281 -0.28125 -1.730468 0.453124 -2.222656 l 0.019532 -0.015625 c 0.609375 -0.398437 1.171875 -1.414062 1.457031 -2.808593 c 0.3125 -1.644532 0.230469 -3.339844 -0.238281 -4.949219 c -0.515625 -1.753907 -1.457032 -3.21875 -2.773438 -4.222657 c -1.492187 -1.136718 -3.464844 -1.6875 -5.96875 -1.527343 c -0.667968 0.042969 -1.296875 -0.324219 -1.582031 -0.929688 c -0.789063 -1.667969 -1.9375 -2.863281 -3.371094 -3.601562 c -1.371093 -0.6875 -2.910156 -0.976563 -4.441406 -0.832031 c -3.121094 0.246093 -5.875 2.007812 -6.695313 4.226562 c -0.238281 0.640625 -0.847656 1.066406 -1.53125 1.066406 c -2.675781 0.003906 -4.746093 0.632813 -6.261718 1.761719 c -1.308594 0.980469 -2.203125 2.34375 -2.671875 3.984375 c -0.429688 1.539062 -0.488281 3.160156 -0.171875 4.730469 c 0.28125 1.398437 0.832031 2.554687 1.460937 3.179687 l 0.019531 0.019532 c 0.53125 0.519531 0.644532 1.328124 0.273438 1.96875 c -0.902344 1.558593 -1.578125 3.882812 -1.6875 6.117187 c -0.125 2.554687 0.464844 4.769531 1.800781 6.359375 l 0.042969 0.046875 c 0.410156 0.480469 0.503906 1.160156 0.238281 1.730469 c -1.445312 3.101562 -1.890625 5.648437 -1.410156 7.65625 c 0.179687 0.867187 -0.367187 1.71875 -1.226563 1.921875 c -0.863281 0.203125 -1.730468 -0.320313 -1.957031 -1.175781 c -0.609375 -2.550782 -0.195312 -5.476563 1.1875 -8.773438 l 0.035157 -0.085938 l -0.019532 -0.03125 c -0.679687 -1.003906 -1.1875 -2.113281 -1.5 -3.28125 l -0.015625 -0.046874 c -0.378906 -1.460938 -0.527343 -2.972657 -0.441406 -4.476563 c 0.109375 -2.285156 0.695313 -4.621094 1.558594 -6.496094 l 0.03125 -0.066406 l -0.003907 -0.003906 c -0.738281 -1.046875 -1.28125 -2.390625 -1.582031 -3.875 l -0.011719 -0.058594 c -0.414062 -2.074219 -0.335937 -4.210937 0.234376 -6.246094 c 0.65625 -2.292969 1.945312 -4.265625 3.851562 -5.691406 c 0.148438 -0.113281 0.308594 -0.222656 0.464844 -0.328125 c -0.398438 -3.746094 -0.296875 -6.847656 0.28125 -9.207031 c 0.320312 -1.296875 0.789062 -2.378907 1.410156 -3.226563 c 0.675781 -0.921875 1.539062 -1.558594 2.542969 -1.847656 c 0.667969 -0.191406 1.355469 -0.148438 2 0.105469 z m 10.324219 22.792969 c 2.347656 0 4.511718 0.785156 6.132812 2.144531 c 1.578125 1.324219 2.519531 3.097656 2.519531 4.867187 c 0 2.226563 -1.015625 3.960938 -2.839843 5.070313 c -1.554688 0.941406 -3.640626 1.394531 -6.027344 1.394531 c -2.53125 0 -4.691406 -0.648437 -6.25 -1.839844 c -1.550782 -1.179687 -2.417969 -2.832031 -2.417969 -4.625 c 0 -1.773437 1 -3.554687 2.648437 -4.882812 c 1.675782 -1.34375 3.886719 -2.128906 6.234376 -2.128906 z m 0 2.25 c -1.742188 -0.015625 -3.433594 0.558594 -4.804688 1.628906 c -1.15625 0.925781 -1.8125 2.09375 -1.8125 3.132812 c 0 1.074219 0.527344 2.082032 1.53125 2.84375 c 1.140625 0.871094 2.816406 1.375 4.871094 1.375 c 2.003906 0 3.695312 -0.367187 4.84375 -1.066406 c 1.164062 -0.703125 1.757812 -1.722656 1.757812 -3.152344 c 0 -1.0625 -0.617187 -2.234374 -1.714844 -3.152343 c -1.210937 -1.015625 -2.859374 -1.609375 -4.671874 -1.609375 z m 1.660156 3.03125 l 0.007812 0.011718 c 0.300782 0.378907 0.238282 0.925782 -0.140625 1.230469 l -0.730469 0.574219 v 1.121094 c -0.003906 0.515625 -0.425781 0.933594 -0.945312 0.933594 c -0.515625 0 -0.9375 -0.417969 -0.941406 -0.933594 v -1.15625 l -0.679688 -0.546875 c -0.179687 -0.144531 -0.296875 -0.355469 -0.320312 -0.585938 c -0.023438 -0.230469 0.042968 -0.460937 0.191406 -0.640625 c 0.304688 -0.375 0.859375 -0.433594 1.238281 -0.128906 l 0.539063 0.429688 l 0.550781 -0.433594 c 0.375 -0.300782 0.921875 -0.242188 1.230469 0.125 z m -12.640625 -4.8125 c 1.199219 0 2.175781 0.980468 2.175781 2.1875 c 0 1.203125 -0.972656 2.179687 -2.179688 2.183594 c -1.199218 -0.003907 -2.171874 -0.980469 -2.171874 -2.183594 c -0.003907 -1.203125 0.96875 -2.183594 2.171874 -2.1875 z m 21.832031 0 c 1.203125 0 2.175781 0.980468 2.175781 2.1875 c 0.003907 1.203125 -0.972656 2.179687 -2.175781 2.183594 c -1.203125 -0.003907 -2.171875 -0.980469 -2.171875 -2.183594 c -0.003906 -1.203125 0.96875 -2.183594 2.171875 -2.1875 z m -22.339844 -20.230469 l -0.007812 0.007813 c -0.292969 0.125 -0.539063 0.332031 -0.714844 0.59375 l -0.011719 0.015624 c -0.347656 0.476563 -0.648437 1.171876 -0.875 2.085938 c -0.425781 1.738281 -0.542969 4.09375 -0.3125 6.976562 c 1.082031 -0.320312 2.257813 -0.519531 3.523438 -0.59375 h 0.023437 l 0.046875 -0.085937 c 0.117188 -0.207031 0.238281 -0.40625 0.375 -0.601563 c 0.304688 -1.933593 0.054688 -4.242187 -0.636719 -6.128906 c -0.335937 -0.910156 -0.746093 -1.628906 -1.136718 -2.039062 c -0.078125 -0.082032 -0.167969 -0.160156 -0.265625 -0.222656 z m 23.003906 0.101563 l -0.003906 0.003906 c -0.097656 0.0625 -0.1875 0.140625 -0.269531 0.222656 c -0.390625 0.410156 -0.800781 1.128906 -1.132813 2.042969 c -0.730468 1.992187 -0.972656 4.453125 -0.578124 6.449219 l 0.144531 0.242187 l 0.019531 0.035156 h 0.074219 c 1.246093 0.003907 2.484375 0.179688 3.679687 0.535157 c 0.214844 -2.820313 0.09375 -5.125 -0.324218 -6.828126 c -0.222657 -0.914062 -0.523438 -1.613281 -0.875 -2.085937 l -0.007813 -0.015625 c -0.175781 -0.265625 -0.425781 -0.472656 -0.714844 -0.597656 h -0.011719 z m 0 0" fill="#1a1a1a" fill-opacity="0.5"/>
</svg>
